<svg id="visual" viewBox="0 0 900 600" width="900" height="600" xmlns="http://www.w3.org/2000/svg" xmlns:xlink="http://www.w3.org/1999/xlink" version="1.1"><rect x="0" y="0" width="900" height="600" fill="#fff"></rect><path d="M0 245L37.5 269.7C75 294.3 150 343.7 225 363.3C300 383 375 373 450 341.2C525 309.3 600 255.7 675 248C750 240.3 825 278.7 862.5 297.8L900 317L900 601L862.5 601C825 601 750 601 675 601C600 601 525 601 450 601C375 601 300 601 225 601C150 601 75 601 37.5 601L0 601Z" fill="#1d8ad5" stroke-linecap="round" stroke-linejoin="miter"></path></svg>